<svg width="120" height="25" viewBox="0 0 120 25" fill="none" xmlns="http://www.w3.org/2000/svg">
<path fill-rule="evenodd" clip-rule="evenodd" d="M3.77245 0H36.8592C38.9531 0 40.6482 1.69505 40.6482 3.78894V16.4188C40.6482 18.5126 38.9531 20.2077 36.8592 20.2077H24.9939L26.6224 24.1961L19.46 20.2077H3.78907C1.69518 20.2077 0.000121157 18.5126 0.000121157 16.4188V3.78894C-0.016497 1.71167 1.67856 0 3.77245 0Z" fill="#9B5C8F"/>
<path d="M2.02736 3.43988C2.26002 3.12413 2.609 2.95795 3.07431 2.92471C3.92183 2.85824 4.40376 3.25708 4.52009 4.12122C5.03525 7.59442 5.60027 10.5358 6.19853 12.9455L9.83791 6.0157C10.1703 5.38421 10.5857 5.05184 11.0843 5.01861C11.8155 4.96875 12.2642 5.43406 12.447 6.41453C12.8624 8.62475 13.3942 10.5026 14.0257 12.0979C14.4578 7.87693 15.189 4.83581 16.2193 2.95795C16.4686 2.49264 16.8342 2.25999 17.3161 2.22675C17.6983 2.19352 18.0473 2.30984 18.363 2.55912C18.6788 2.80839 18.845 3.12413 18.8782 3.50635C18.8948 3.80548 18.845 4.05475 18.712 4.30403C18.0639 5.50053 17.5321 7.51133 17.1 10.3032C16.6846 13.012 16.535 15.1225 16.6347 16.6347C16.668 17.0502 16.6015 17.4158 16.4353 17.7315C16.2359 18.0971 15.9368 18.2965 15.5546 18.3298C15.1225 18.363 14.6738 18.1636 14.2417 17.7149C12.6962 16.1362 11.4665 13.7764 10.5691 10.6356C9.48893 12.7627 8.69125 14.358 8.17609 15.4216C7.19562 17.2994 6.36471 18.2633 5.66674 18.3131C5.21805 18.3464 4.83584 17.9642 4.50347 17.1665C3.65595 14.9895 2.74195 10.7851 1.76147 4.5533C1.71162 4.12123 1.79471 3.73901 2.02736 3.43988Z" fill="white"/>
<path d="M37.7563 6.0489C37.1581 5.00196 36.2773 4.37047 35.0974 4.12119C34.7817 4.05472 34.4825 4.02148 34.2 4.02148C32.6047 4.02148 31.3085 4.85239 30.2948 6.51421C29.4306 7.92676 28.9985 9.48887 28.9985 11.2005C28.9985 12.4801 29.2644 13.5769 29.7962 14.4909C30.3945 15.5379 31.2752 16.1694 32.4551 16.4186C32.7709 16.4851 33.07 16.5184 33.3525 16.5184C34.9645 16.5184 36.2607 15.6874 37.2578 14.0256C38.1219 12.5965 38.554 11.0344 38.554 9.32268C38.554 8.02646 38.2881 6.94629 37.7563 6.0489ZM35.6624 10.6521C35.4298 11.7489 35.0143 12.5632 34.3994 13.1116C33.9175 13.5437 33.4688 13.7265 33.0534 13.6434C32.6545 13.5603 32.3222 13.2113 32.0729 12.5632C31.8735 12.0481 31.7738 11.5329 31.7738 11.051C31.7738 10.6355 31.807 10.2201 31.8901 9.83785C32.0397 9.1565 32.3222 8.49178 32.7709 7.86028C33.3193 7.04599 33.9009 6.71363 34.4992 6.82996C34.898 6.91305 35.2304 7.26203 35.4796 7.91014C35.679 8.4253 35.7787 8.94047 35.7787 9.42239C35.7787 9.85447 35.7289 10.2699 35.6624 10.6521Z" fill="white"/>
<path d="M27.3374 6.0489C26.7391 5.00196 25.8417 4.37047 24.6785 4.12119C24.3627 4.05472 24.0636 4.02148 23.7811 4.02148C22.1857 4.02148 20.8895 4.85239 19.8758 6.51421C19.0117 7.92676 18.5796 9.48887 18.5796 11.2005C18.5796 12.4801 18.8455 13.5769 19.3773 14.4909C19.9755 15.5379 20.8563 16.1694 22.0362 16.4186C22.3519 16.4851 22.651 16.5184 22.9336 16.5184C24.5455 16.5184 25.8417 15.6874 26.8388 14.0256C27.703 12.5965 28.135 11.0344 28.135 9.32268C28.135 8.02646 27.8692 6.94629 27.3374 6.0489ZM25.2435 10.6521C25.0108 11.7489 24.5954 12.5632 23.9805 13.1116C23.4986 13.5437 23.0499 13.7265 22.6344 13.6434C22.2356 13.5603 21.9032 13.2113 21.654 12.5632C21.4545 12.0481 21.3548 11.5329 21.3548 11.051C21.3548 10.6355 21.3881 10.2201 21.4712 9.83785C21.6207 9.1565 21.9032 8.49178 22.3519 7.86028C22.9003 7.04599 23.482 6.71363 24.0802 6.82996C24.479 6.91305 24.8114 7.26203 25.0607 7.91014C25.2601 8.4253 25.3598 8.94047 25.3598 9.42239C25.3598 9.85447 25.3266 10.2699 25.2435 10.6521Z" fill="white"/>
<path d="M44.8527 5.8996C43.7393 6.9964 43.1909 8.39232 43.1909 10.0874C43.1909 11.8988 43.7393 13.3778 44.8361 14.4912C45.9329 15.6046 47.3621 16.1696 49.1402 16.1696C49.6554 16.1696 50.237 16.0865 50.8685 15.9037V13.2116C50.2869 13.3778 49.7883 13.4609 49.3563 13.4609C48.4755 13.4609 47.7775 13.1617 47.2458 12.5801C46.714 11.9818 46.4481 11.1842 46.4481 10.1705C46.4481 9.22323 46.714 8.44218 47.2291 7.84392C47.7609 7.22905 48.409 6.92992 49.2067 6.92992C49.7219 6.92992 50.2703 7.01301 50.8685 7.17919V4.48705C50.3201 4.33749 49.7052 4.27101 49.0571 4.27101C47.3621 4.2544 45.9662 4.8028 44.8527 5.8996ZM56.3857 4.25439C54.8569 4.25439 53.6604 4.76956 52.7962 5.78327C51.9321 6.79698 51.5166 8.22614 51.5166 10.0541C51.5166 12.0317 51.9487 13.544 52.7962 14.5909C53.6438 15.6378 54.8901 16.1696 56.5187 16.1696C58.0974 16.1696 59.3106 15.6378 60.1581 14.5909C61.0056 13.544 61.4377 12.0649 61.4377 10.1705C61.4377 8.27599 61.0056 6.8136 60.1415 5.78327C59.2607 4.76956 58.0143 4.25439 56.3857 4.25439ZM57.6986 12.8958C57.3995 13.3612 56.9508 13.5938 56.3857 13.5938C55.854 13.5938 55.4551 13.3612 55.1726 12.8958C54.8901 12.4305 54.7572 11.4999 54.7572 10.0874C54.7572 7.91039 55.3056 6.83021 56.419 6.83021C57.5823 6.83021 58.1805 7.92702 58.1805 10.1372C58.1639 11.4999 57.9977 12.4305 57.6986 12.8958ZM69.6471 4.57014L69.0488 7.11272C68.8992 7.76083 68.7497 8.42556 68.6167 9.1069L68.2844 10.8684C67.9686 9.10691 67.5365 7.01302 66.9881 4.57014H63.1327L61.687 15.8871H64.5785L65.3596 8.09319L67.3371 15.8871H69.3978L71.2923 8.10981L72.1066 15.8871H75.1311L73.6022 4.57014H69.6471V4.57014ZM83.49 4.57014L82.8917 7.11272C82.7422 7.76083 82.5926 8.42556 82.4597 9.1069L82.1273 10.8684C81.8116 9.10691 81.3795 7.01302 80.8311 4.57014H76.9757L75.5299 15.8871H78.4215L79.2025 8.09319L81.1801 15.8871H83.2407L85.1186 8.10981L85.9329 15.8871H88.9574L87.4285 4.57014H83.49V4.57014ZM92.8959 11.4168H95.6046V9.07367H92.8959V6.99639H96.0201V4.58676H89.8381V15.9037H96.0367V13.4941H92.8959V11.4168ZM104.645 9.62207C104.961 9.10691 105.127 8.57512 105.127 8.02672C105.127 6.96316 104.711 6.11563 103.88 5.50076C103.05 4.88589 101.903 4.57014 100.474 4.57014H96.9175V15.8871H99.9752V10.7355H100.025L102.501 15.8871H105.725L103.282 10.7853C103.864 10.5195 104.329 10.1372 104.645 9.62207ZM99.9586 9.43927V6.74712C100.69 6.76374 101.205 6.88007 101.521 7.11272C101.836 7.34538 101.986 7.71098 101.986 8.24276C101.986 9.02381 101.305 9.42265 99.9586 9.43927ZM106.922 5.8996C105.808 6.9964 105.26 8.39232 105.26 10.0874C105.26 11.8988 105.808 13.3778 106.905 14.4912C108.002 15.6046 109.431 16.1696 111.209 16.1696C111.724 16.1696 112.306 16.0865 112.937 15.9037V13.2116C112.356 13.3778 111.857 13.4609 111.425 13.4609C110.544 13.4609 109.846 13.1617 109.315 12.5801C108.783 11.9818 108.517 11.1842 108.517 10.1705C108.517 9.22323 108.783 8.44218 109.298 7.84392C109.83 7.22905 110.478 6.92992 111.276 6.92992C111.791 6.92992 112.339 7.01301 112.937 7.17919V4.48705C112.389 4.33749 111.774 4.27101 111.126 4.27101C109.448 4.2544 108.035 4.8028 106.922 5.8996ZM116.843 13.4609V11.4002H119.551V9.05705H116.843V6.97978H119.984V4.57014H113.802V15.8871H120V13.4775H116.843V13.4609Z" fill="black"/>
</svg>
