<svg width="1000" height="943" viewBox="0 0 1000 943" fill="none" xmlns="http://www.w3.org/2000/svg">
<path opacity="0.6" d="M16.3306 71.3145C29.9093 52.8379 50.2775 43.1133 77.435 41.1684C126.9 37.2786 155.028 60.6176 161.817 111.185C191.884 314.428 224.861 486.552 259.778 627.558L472.189 222.045C491.587 185.092 515.835 165.642 544.932 163.698C587.608 160.78 613.795 188.009 624.464 245.384C648.712 374.72 679.749 484.607 716.606 577.963C741.824 330.96 784.5 153.001 844.634 43.1134C859.183 15.8847 880.521 2.2704 908.648 0.325498C930.956 -1.61941 951.324 5.18777 969.753 19.7746C988.181 34.3614 997.88 52.8378 999.82 75.2042C1000.79 92.7084 997.88 107.295 990.121 121.882C952.294 191.899 921.257 309.566 896.039 472.938C871.792 631.448 863.063 754.949 868.882 843.443C870.822 867.754 866.942 889.148 857.243 907.625C845.604 929.019 828.146 940.688 805.838 942.633C780.62 944.578 754.433 932.908 729.215 906.652C639.013 814.269 567.24 676.181 514.865 492.387C451.821 616.861 405.265 710.217 375.198 772.454C317.973 882.341 269.477 938.743 228.741 941.66C202.554 943.605 180.246 921.239 160.847 874.561C111.382 747.17 58.0368 501.139 0.812086 136.469C-2.09765 111.185 2.75182 88.8187 16.3306 71.3145Z" fill="white"/>
</svg>
